<svg xmlns="http://www.w3.org/2000/svg" width="1200" height="800" viewBox="0 0 1200 800" fill="none">
  <defs>
    <linearGradient id="g" x1="180" y1="160" x2="1040" y2="740" gradientUnits="userSpaceOnUse">
      <stop stop-color="#00D4FF" stop-opacity="0.35"/>
      <stop offset="0.45" stop-color="#4F46E5" stop-opacity="0.18"/>
      <stop offset="1" stop-color="#00D4FF" stop-opacity="0.22"/>
    </linearGradient>
    <radialGradient id="blob" cx="0" cy="0" r="1" gradientUnits="userSpaceOnUse" gradientTransform="translate(320 240) rotate(35) scale(520 420)">
      <stop stop-color="#00D4FF" stop-opacity="0.22"/>
      <stop offset="1" stop-color="#00D4FF" stop-opacity="0"/>
    </radialGradient>
    <radialGradient id="blob2" cx="0" cy="0" r="1" gradientUnits="userSpaceOnUse" gradientTransform="translate(920 560) rotate(-20) scale(520 420)">
      <stop stop-color="#4F46E5" stop-opacity="0.18"/>
      <stop offset="1" stop-color="#4F46E5" stop-opacity="0"/>
    </radialGradient>
    <filter id="softGlow" x="-20%" y="-20%" width="140%" height="140%" color-interpolation-filters="sRGB">
      <feGaussianBlur stdDeviation="10" result="b"/>
      <feColorMatrix in="b" type="matrix" values="1 0 0 0 0  0 1 0 0 0  0 0 1 0 0  0 0 0 0.35 0"/>
      <feMerge>
        <feMergeNode/>
        <feMergeNode in="SourceGraphic"/>
      </feMerge>
    </filter>
  </defs>

  <!-- Ambient blobs -->
  <circle cx="320" cy="240" r="360" fill="url(#blob)"/>
  <circle cx="920" cy="560" r="360" fill="url(#blob2)"/>

  <!-- Subtle grid dots -->
  <g opacity="0.35">
    <g fill="#94A3B8" fill-opacity="0.35">
      <circle cx="180" cy="160" r="2"/>
      <circle cx="260" cy="160" r="2"/>
      <circle cx="340" cy="160" r="2"/>
      <circle cx="420" cy="160" r="2"/>
      <circle cx="500" cy="160" r="2"/>
      <circle cx="580" cy="160" r="2"/>
      <circle cx="660" cy="160" r="2"/>
      <circle cx="740" cy="160" r="2"/>
      <circle cx="820" cy="160" r="2"/>
      <circle cx="900" cy="160" r="2"/>
      <circle cx="980" cy="160" r="2"/>
      <circle cx="180" cy="240" r="2"/>
      <circle cx="260" cy="240" r="2"/>
      <circle cx="340" cy="240" r="2"/>
      <circle cx="420" cy="240" r="2"/>
      <circle cx="500" cy="240" r="2"/>
      <circle cx="580" cy="240" r="2"/>
      <circle cx="660" cy="240" r="2"/>
      <circle cx="740" cy="240" r="2"/>
      <circle cx="820" cy="240" r="2"/>
      <circle cx="900" cy="240" r="2"/>
      <circle cx="980" cy="240" r="2"/>
      <circle cx="180" cy="320" r="2"/>
      <circle cx="260" cy="320" r="2"/>
      <circle cx="340" cy="320" r="2"/>
      <circle cx="420" cy="320" r="2"/>
      <circle cx="500" cy="320" r="2"/>
      <circle cx="580" cy="320" r="2"/>
      <circle cx="660" cy="320" r="2"/>
      <circle cx="740" cy="320" r="2"/>
      <circle cx="820" cy="320" r="2"/>
      <circle cx="900" cy="320" r="2"/>
      <circle cx="980" cy="320" r="2"/>
    </g>
  </g>

  <!-- Main "communication" UI window -->
  <g filter="url(#softGlow)">
    <rect x="190" y="170" width="820" height="500" rx="34" fill="url(#g)" fill-opacity="0.22" stroke="#00D4FF" stroke-opacity="0.22" stroke-width="2"/>
  </g>

  <!-- Header bar -->
  <rect x="190" y="170" width="820" height="72" rx="34" fill="#0F172A" fill-opacity="0.14"/>
  <rect x="190" y="208" width="820" height="34" fill="#0F172A" fill-opacity="0.08"/>

  <!-- Window controls -->
  <g opacity="0.65">
    <circle cx="232" cy="206" r="6" fill="#94A3B8" fill-opacity="0.35"/>
    <circle cx="254" cy="206" r="6" fill="#94A3B8" fill-opacity="0.35"/>
    <circle cx="276" cy="206" r="6" fill="#94A3B8" fill-opacity="0.35"/>
  </g>

  <!-- Search bar -->
  <rect x="322" y="192" width="390" height="28" rx="14" fill="#94A3B8" fill-opacity="0.18"/>
  <circle cx="344" cy="206" r="7" stroke="#00D4FF" stroke-opacity="0.65" stroke-width="2"/>
  <path d="M350 212 L358 220" stroke="#00D4FF" stroke-opacity="0.65" stroke-width="2" stroke-linecap="round"/>

  <!-- Left sidebar -->
  <rect x="210" y="262" width="214" height="388" rx="22" fill="#94A3B8" fill-opacity="0.10" stroke="#94A3B8" stroke-opacity="0.20"/>

  <!-- Sidebar items -->
  <g>
    <rect x="232" y="288" width="170" height="44" rx="14" fill="#00D4FF" fill-opacity="0.10"/>
    <rect x="246" y="304" width="110" height="10" rx="5" fill="#00D4FF" fill-opacity="0.55"/>
    <circle cx="382" cy="310" r="5" fill="#00D4FF" fill-opacity="0.75"/>

    <rect x="232" y="344" width="170" height="44" rx="14" fill="#94A3B8" fill-opacity="0.10"/>
    <rect x="246" y="360" width="132" height="10" rx="5" fill="#94A3B8" fill-opacity="0.30"/>

    <rect x="232" y="400" width="170" height="44" rx="14" fill="#94A3B8" fill-opacity="0.10"/>
    <rect x="246" y="416" width="92" height="10" rx="5" fill="#94A3B8" fill-opacity="0.30"/>

    <rect x="232" y="456" width="170" height="44" rx="14" fill="#94A3B8" fill-opacity="0.10"/>
    <rect x="246" y="472" width="120" height="10" rx="5" fill="#94A3B8" fill-opacity="0.30"/>
  </g>

  <!-- Main thread area -->
  <rect x="444" y="262" width="546" height="388" rx="22" fill="#94A3B8" fill-opacity="0.06" stroke="#94A3B8" stroke-opacity="0.18"/>

  <!-- Messages -->
  <g>
    <rect x="472" y="290" width="340" height="62" rx="20" fill="#94A3B8" fill-opacity="0.12"/>
    <rect x="494" y="310" width="220" height="10" rx="5" fill="#94A3B8" fill-opacity="0.28"/>
    <rect x="494" y="330" width="180" height="10" rx="5" fill="#94A3B8" fill-opacity="0.22"/>

    <rect x="610" y="372" width="352" height="64" rx="20" fill="#00D4FF" fill-opacity="0.12"/>
    <rect x="632" y="392" width="200" height="10" rx="5" fill="#00D4FF" fill-opacity="0.45"/>
    <rect x="632" y="412" width="160" height="10" rx="5" fill="#00D4FF" fill-opacity="0.30"/>

    <rect x="472" y="456" width="316" height="62" rx="20" fill="#94A3B8" fill-opacity="0.12"/>
    <rect x="494" y="476" width="240" height="10" rx="5" fill="#94A3B8" fill-opacity="0.28"/>
    <rect x="494" y="496" width="140" height="10" rx="5" fill="#94A3B8" fill-opacity="0.22"/>
  </g>

  <!-- Call + Email chips -->
  <g>
    <rect x="764" y="192" width="92" height="28" rx="14" fill="#00D4FF" fill-opacity="0.12" stroke="#00D4FF" stroke-opacity="0.35"/>
    <path d="M790 204c6-6 18-6 24 0" stroke="#00D4FF" stroke-opacity="0.75" stroke-width="2" stroke-linecap="round"/>
    <path d="M792 210c5-5 15-5 20 0" stroke="#00D4FF" stroke-opacity="0.55" stroke-width="2" stroke-linecap="round"/>

    <rect x="868" y="192" width="120" height="28" rx="14" fill="#94A3B8" fill-opacity="0.10" stroke="#94A3B8" stroke-opacity="0.22"/>
    <path d="M892 202h48l-24 18-24-18Z" fill="#94A3B8" fill-opacity="0.40"/>
    <path d="M892 202v18h48v-18" stroke="#94A3B8" stroke-opacity="0.28"/>
  </g>
</svg>
