<svg xmlns="http://www.w3.org/2000/svg" width="1200" height="800" viewBox="0 0 1200 800" fill="none">
  <defs>
    <linearGradient id="g" x1="170" y1="170" x2="1040" y2="700" gradientUnits="userSpaceOnUse">
      <stop stop-color="#00D4FF" stop-opacity="0.30"/>
      <stop offset="0.55" stop-color="#4F46E5" stop-opacity="0.16"/>
      <stop offset="1" stop-color="#00D4FF" stop-opacity="0.18"/>
    </linearGradient>
    <radialGradient id="blob" cx="0" cy="0" r="1" gradientUnits="userSpaceOnUse" gradientTransform="translate(360 260) rotate(22) scale(560 460)">
      <stop stop-color="#00D4FF" stop-opacity="0.18"/>
      <stop offset="1" stop-color="#00D4FF" stop-opacity="0"/>
    </radialGradient>
    <radialGradient id="blob2" cx="0" cy="0" r="1" gradientUnits="userSpaceOnUse" gradientTransform="translate(900 560) rotate(-18) scale(560 460)">
      <stop stop-color="#4F46E5" stop-opacity="0.16"/>
      <stop offset="1" stop-color="#4F46E5" stop-opacity="0"/>
    </radialGradient>
    <filter id="softGlow" x="-20%" y="-20%" width="140%" height="140%" color-interpolation-filters="sRGB">
      <feGaussianBlur stdDeviation="10" result="b"/>
      <feColorMatrix in="b" type="matrix" values="1 0 0 0 0  0 1 0 0 0  0 0 1 0 0  0 0 0 0.32 0"/>
      <feMerge>
        <feMergeNode/>
        <feMergeNode in="SourceGraphic"/>
      </feMerge>
    </filter>
  </defs>

  <!-- Ambient blobs -->
  <circle cx="360" cy="260" r="380" fill="url(#blob)"/>
  <circle cx="900" cy="560" r="380" fill="url(#blob2)"/>

  <!-- Workspace shell -->
  <g filter="url(#softGlow)">
    <rect x="150" y="150" width="900" height="560" rx="36" fill="#FFFFFF" fill-opacity="0.05" stroke="url(#g)" stroke-opacity="0.55"/>
    <rect x="150" y="150" width="900" height="64" rx="36" fill="#00D4FF" fill-opacity="0.08"/>

    <!-- Top nav pills -->
    <rect x="210" y="172" width="110" height="20" rx="10" fill="#94A3B8" fill-opacity="0.18"/>
    <rect x="330" y="172" width="90" height="20" rx="10" fill="#94A3B8" fill-opacity="0.12"/>
    <rect x="428" y="172" width="126" height="20" rx="10" fill="#94A3B8" fill-opacity="0.12"/>

    <!-- Kanban board columns -->
    <g>
      <rect x="190" y="250" width="250" height="420" rx="26" fill="#94A3B8" fill-opacity="0.06" stroke="#94A3B8" stroke-opacity="0.16"/>
      <rect x="475" y="250" width="250" height="420" rx="26" fill="#94A3B8" fill-opacity="0.06" stroke="#94A3B8" stroke-opacity="0.16"/>
      <rect x="760" y="250" width="250" height="420" rx="26" fill="#94A3B8" fill-opacity="0.06" stroke="#94A3B8" stroke-opacity="0.16"/>

      <!-- Column headers -->
      <rect x="215" y="278" width="120" height="16" rx="8" fill="#94A3B8" fill-opacity="0.26"/>
      <rect x="500" y="278" width="140" height="16" rx="8" fill="#94A3B8" fill-opacity="0.26"/>
      <rect x="785" y="278" width="110" height="16" rx="8" fill="#94A3B8" fill-opacity="0.26"/>

      <!-- Tasks in column 1 -->
      <rect x="215" y="320" width="200" height="64" rx="18" fill="#FFFFFF" fill-opacity="0.06" stroke="#94A3B8" stroke-opacity="0.18"/>
      <rect x="232" y="340" width="120" height="10" rx="5" fill="#94A3B8" fill-opacity="0.22"/>
      <rect x="232" y="358" width="160" height="10" rx="5" fill="#94A3B8" fill-opacity="0.18"/>

      <rect x="215" y="398" width="200" height="54" rx="18" fill="#FFFFFF" fill-opacity="0.06" stroke="#94A3B8" stroke-opacity="0.18"/>
      <rect x="232" y="418" width="150" height="10" rx="5" fill="#94A3B8" fill-opacity="0.20"/>

      <!-- Tasks in column 2 (active/highlight) -->
      <rect x="500" y="320" width="200" height="72" rx="18" fill="#00D4FF" fill-opacity="0.10" stroke="#00D4FF" stroke-opacity="0.28"/>
      <circle cx="526" cy="350" r="8" fill="#00D4FF" fill-opacity="0.85"/>
      <rect x="542" y="342" width="130" height="10" rx="5" fill="#00D4FF" fill-opacity="0.40"/>
      <rect x="542" y="360" width="160" height="10" rx="5" fill="#00D4FF" fill-opacity="0.26"/>

      <rect x="500" y="404" width="200" height="56" rx="18" fill="#FFFFFF" fill-opacity="0.06" stroke="#94A3B8" stroke-opacity="0.18"/>
      <rect x="517" y="424" width="150" height="10" rx="5" fill="#94A3B8" fill-opacity="0.20"/>

      <!-- Tasks in column 3 -->
      <rect x="785" y="320" width="200" height="64" rx="18" fill="#4F46E5" fill-opacity="0.08" stroke="#4F46E5" stroke-opacity="0.22"/>
      <rect x="802" y="340" width="130" height="10" rx="5" fill="#94A3B8" fill-opacity="0.22"/>
      <rect x="802" y="358" width="160" height="10" rx="5" fill="#94A3B8" fill-opacity="0.18"/>

      <rect x="785" y="398" width="200" height="54" rx="18" fill="#FFFFFF" fill-opacity="0.06" stroke="#94A3B8" stroke-opacity="0.18"/>
      <rect x="802" y="418" width="150" height="10" rx="5" fill="#94A3B8" fill-opacity="0.20"/>
    </g>

    <!-- HR checklist module -->
    <g>
      <rect x="190" y="690" width="520" height="0" rx="0" fill="none"/>
      <rect x="190" y="566" width="520" height="104" rx="26" fill="#FFFFFF" fill-opacity="0.04" stroke="#94A3B8" stroke-opacity="0.14"/>
      <rect x="220" y="594" width="180" height="14" rx="7" fill="#94A3B8" fill-opacity="0.22"/>

      <rect x="220" y="624" width="18" height="18" rx="5" fill="#00D4FF" fill-opacity="0.16" stroke="#00D4FF" stroke-opacity="0.35"/>
      <path d="M224 634l4 4 8-10" stroke="#00D4FF" stroke-opacity="0.85" stroke-width="2.4" stroke-linecap="round" stroke-linejoin="round"/>
      <rect x="248" y="628" width="220" height="10" rx="5" fill="#94A3B8" fill-opacity="0.20"/>

      <rect x="500" y="624" width="18" height="18" rx="5" fill="#94A3B8" fill-opacity="0.10" stroke="#94A3B8" stroke-opacity="0.18"/>
      <rect x="528" y="628" width="150" height="10" rx="5" fill="#94A3B8" fill-opacity="0.18"/>
    </g>
  </g>
</svg>
