<svg xmlns="http://www.w3.org/2000/svg" width="1200" height="800" viewBox="0 0 1200 800" fill="none">
  <defs>
    <linearGradient id="g" x1="160" y1="170" x2="1040" y2="690" gradientUnits="userSpaceOnUse">
      <stop stop-color="#00D4FF" stop-opacity="0.30"/>
      <stop offset="0.55" stop-color="#4F46E5" stop-opacity="0.16"/>
      <stop offset="1" stop-color="#00D4FF" stop-opacity="0.18"/>
    </linearGradient>
    <radialGradient id="blob" cx="0" cy="0" r="1" gradientUnits="userSpaceOnUse" gradientTransform="translate(420 260) rotate(20) scale(560 440)">
      <stop stop-color="#00D4FF" stop-opacity="0.18"/>
      <stop offset="1" stop-color="#00D4FF" stop-opacity="0"/>
    </radialGradient>
    <radialGradient id="blob2" cx="0" cy="0" r="1" gradientUnits="userSpaceOnUse" gradientTransform="translate(860 560) rotate(-12) scale(560 440)">
      <stop stop-color="#4F46E5" stop-opacity="0.16"/>
      <stop offset="1" stop-color="#4F46E5" stop-opacity="0"/>
    </radialGradient>
    <filter id="softGlow" x="-20%" y="-20%" width="140%" height="140%" color-interpolation-filters="sRGB">
      <feGaussianBlur stdDeviation="10" result="b"/>
      <feColorMatrix in="b" type="matrix" values="1 0 0 0 0  0 1 0 0 0  0 0 1 0 0  0 0 0 0.32 0"/>
      <feMerge>
        <feMergeNode/>
        <feMergeNode in="SourceGraphic"/>
      </feMerge>
    </filter>
  </defs>

  <!-- Ambient blobs -->
  <circle cx="420" cy="260" r="380" fill="url(#blob)"/>
  <circle cx="860" cy="560" r="380" fill="url(#blob2)"/>

  <!-- Three overlapping work surfaces (Doc, Sheet, Whiteboard) -->
  <g filter="url(#softGlow)">
    <!-- Back card: Whiteboard -->
    <rect x="270" y="214" width="760" height="460" rx="34" fill="#94A3B8" fill-opacity="0.06" stroke="#94A3B8" stroke-opacity="0.18"/>
    <rect x="270" y="214" width="760" height="70" rx="34" fill="url(#g)" fill-opacity="0.22"/>
    <g opacity="0.9">
      <path d="M360 420c80-70 170-70 250 0s170 70 250 0" stroke="#00D4FF" stroke-opacity="0.55" stroke-width="4" stroke-linecap="round"/>
      <path d="M360 470c70-50 150-50 220 0s150 50 220 0" stroke="#4F46E5" stroke-opacity="0.35" stroke-width="4" stroke-linecap="round"/>
      <circle cx="510" cy="405" r="8" fill="#00D4FF" fill-opacity="0.65"/>
      <circle cx="740" cy="485" r="8" fill="#4F46E5" fill-opacity="0.55"/>
      <rect x="330" y="308" width="200" height="44" rx="14" fill="#94A3B8" fill-opacity="0.10"/>
      <rect x="346" y="324" width="148" height="10" rx="5" fill="#94A3B8" fill-opacity="0.30"/>
    </g>

    <!-- Middle card: Sheet -->
    <rect x="210" y="258" width="720" height="430" rx="32" fill="#94A3B8" fill-opacity="0.08" stroke="#94A3B8" stroke-opacity="0.18"/>
    <rect x="210" y="258" width="720" height="64" rx="32" fill="#94A3B8" fill-opacity="0.06"/>
    <g opacity="0.85">
      <!-- Grid lines -->
      <path d="M270 360H870" stroke="#94A3B8" stroke-opacity="0.20"/>
      <path d="M270 410H870" stroke="#94A3B8" stroke-opacity="0.20"/>
      <path d="M270 460H870" stroke="#94A3B8" stroke-opacity="0.20"/>
      <path d="M270 510H870" stroke="#94A3B8" stroke-opacity="0.20"/>
      <path d="M270 560H870" stroke="#94A3B8" stroke-opacity="0.20"/>

      <path d="M360 332V610" stroke="#94A3B8" stroke-opacity="0.18"/>
      <path d="M470 332V610" stroke="#94A3B8" stroke-opacity="0.18"/>
      <path d="M580 332V610" stroke="#94A3B8" stroke-opacity="0.18"/>
      <path d="M690 332V610" stroke="#94A3B8" stroke-opacity="0.18"/>

      <!-- Highlight cells -->
      <rect x="360" y="410" width="110" height="50" rx="12" fill="#00D4FF" fill-opacity="0.10" stroke="#00D4FF" stroke-opacity="0.25"/>
      <rect x="580" y="510" width="110" height="50" rx="12" fill="#4F46E5" fill-opacity="0.08" stroke="#4F46E5" stroke-opacity="0.22"/>
    </g>

    <!-- Front card: Doc -->
    <rect x="170" y="294" width="660" height="400" rx="30" fill="#FFFFFF" fill-opacity="0.05" stroke="#00D4FF" stroke-opacity="0.28"/>
    <rect x="170" y="294" width="660" height="62" rx="30" fill="#00D4FF" fill-opacity="0.08"/>
    <g opacity="0.95">
      <rect x="210" y="380" width="360" height="16" rx="8" fill="#94A3B8" fill-opacity="0.30"/>
      <rect x="210" y="410" width="420" height="14" rx="7" fill="#94A3B8" fill-opacity="0.22"/>
      <rect x="210" y="438" width="300" height="14" rx="7" fill="#94A3B8" fill-opacity="0.18"/>

      <rect x="210" y="490" width="520" height="14" rx="7" fill="#94A3B8" fill-opacity="0.22"/>
      <rect x="210" y="518" width="470" height="14" rx="7" fill="#94A3B8" fill-opacity="0.18"/>
      <rect x="210" y="546" width="410" height="14" rx="7" fill="#94A3B8" fill-opacity="0.18"/>

      <!-- Action chip -->
      <rect x="640" y="610" width="150" height="38" rx="19" fill="#00D4FF" fill-opacity="0.14" stroke="#00D4FF" stroke-opacity="0.35"/>
      <circle cx="662" cy="629" r="6" fill="#00D4FF" fill-opacity="0.75"/>
      <rect x="676" y="624" width="94" height="10" rx="5" fill="#00D4FF" fill-opacity="0.40"/>
    </g>
  </g>
</svg>
